<?xml version="1.0" standalone="no"?>
<!DOCTYPE svg PUBLIC "-//W3C//DTD SVG 20010904//EN"
 "http://www.w3.org/TR/2001/REC-SVG-20010904/DTD/svg10.dtd">
<svg version="1.0" xmlns="http://www.w3.org/2000/svg"
 width="250.000000pt" height="250.000000pt" viewBox="0 0 250.000000 250.000000"
 preserveAspectRatio="xMidYMid meet">
<metadata>
Created by potrace 1.11, written by Peter Selinger 2001-2013
</metadata>
<g transform="translate(0.000000,250.000000) scale(0.100000,-0.100000)"
fill="#000000" stroke="none">
<path d="M1170 1495 c-8 -2 -32 -6 -53 -10 -23 -4 -35 -10 -31 -17 4 -5 0 -14
-7 -19 -19 -12 -62 -11 -54 1 3 6 -1 10 -9 10 -10 0 -13 -6 -10 -15 5 -11 -1
-15 -17 -15 -19 0 -21 2 -9 10 8 5 12 10 8 10 -14 0 -208 -102 -208 -110 0
-12 -61 -74 -93 -93 -17 -11 -44 -51 -73 -110 -25 -50 -57 -107 -71 -125 -43
-57 -58 -154 -56 -372 2 -205 0 -230 -22 -230 -20 0 -54 -47 -61 -88 -8 -39 6
-127 38 -245 l21 -77 582 0 c636 0 607 -3 585 56 -6 14 -10 38 -10 53 0 15 -5
32 -10 37 -14 14 -21 72 -9 79 5 4 9 1 9 -4 0 -6 7 -11 15 -11 13 0 15 -11 11
-65 -2 -37 0 -65 5 -65 5 0 9 -18 9 -40 l0 -40 224 0 c255 0 236 -8 236 96 0
28 5 76 10 105 28 144 43 390 30 487 -11 85 -58 211 -108 288 -17 27 -47 90
-67 139 -20 50 -47 104 -59 120 -24 31 -102 79 -115 70 -5 -2 -23 9 -42 26
-19 17 -56 42 -84 56 -27 14 -70 37 -95 52 -79 46 -109 52 -255 56 -77 1 -147
1 -155 0z m294 -136 c-9 -15 -20 -10 -20 10 0 15 3 17 13 9 7 -6 10 -14 7 -19z
m-147 -25 c-3 -3 -12 -4 -19 -1 -8 3 -5 6 6 6 11 1 17 -2 13 -5z m504 -181
c53 -44 92 -90 126 -151 38 -66 44 -95 15 -69 -10 10 -25 17 -33 17 -17 1 -79
55 -79 70 0 5 -9 10 -20 10 -11 0 -20 3 -20 8 0 4 -10 12 -22 17 -18 8 -23 19
-25 48 0 22 4 37 10 37 7 0 4 5 -6 11 -19 11 -14 29 8 29 7 0 28 -12 46 -27z
m-400 -13 c8 11 12 12 16 3 2 -7 13 -13 23 -13 34 0 134 -66 124 -82 -4 -5 -8
-37 -10 -70 -2 -34 -7 -65 -11 -69 -15 -14 -83 -22 -83 -9 0 7 -6 5 -16 -5
-23 -22 -13 -28 57 -31 69 -2 80 -8 53 -29 -13 -10 -37 -13 -76 -11 -31 2 -61
-1 -66 -6 -11 -11 -249 -14 -259 -4 -4 3 -1 12 7 19 10 9 11 9 6 0 -10 -19 10
-16 30 4 12 13 13 18 4 21 -7 3 -25 19 -41 36 -24 26 -26 33 -14 42 8 6 15 17
15 24 0 7 6 10 13 7 7 -3 21 1 30 8 16 11 16 14 -3 38 -21 27 -28 49 -9 30 9
-9 16 -8 27 4 14 14 14 17 -3 29 -18 13 -18 14 4 33 13 11 44 23 69 27 26 4
56 13 67 20 17 13 20 12 28 -8 7 -19 10 -20 18 -8z m-221 -70 c0 -5 -5 -10
-11 -10 -5 0 -7 5 -4 10 3 6 8 10 11 10 2 0 4 -4 4 -10z m0 -81 c0 -5 -9 -9
-20 -9 -11 0 -20 4 -20 8 0 4 9 8 20 9 11 1 20 -2 20 -8z m359 -215 c20 -4 22
-7 10 -14 -7 -5 -22 -7 -31 -5 -10 3 -28 8 -39 11 -12 3 -19 2 -16 -2 3 -5
-16 -8 -41 -7 -26 0 -60 1 -76 2 -16 1 -26 4 -23 8 18 17 155 22 216 7z m-315
-59 c-10 -7 -24 -11 -31 -8 -20 8 -15 22 6 16 11 -3 21 2 26 14 5 13 9 14 12
5 3 -7 -3 -19 -13 -27z m96 -25 c-6 -4 -10 -12 -8 -17 3 -11 -1 -13 -28 -13
-9 0 -13 5 -9 13 4 6 0 4 -8 -5 -17 -21 -37 -24 -37 -5 0 8 -3 7 -10 -3 -5 -8
-12 -11 -16 -7 -9 9 16 38 27 31 5 -3 15 1 23 9 9 8 26 12 46 9 18 -3 27 -8
20 -12z m99 8 c11 -10 14 -10 18 0 3 6 20 12 39 12 31 0 33 -2 22 -19 -6 -10
-18 -17 -26 -14 -8 3 -18 0 -23 -8 -7 -11 -12 -12 -27 -2 -12 7 -24 8 -33 2
-22 -14 -36 -11 -42 10 -4 15 1 21 22 24 14 2 28 5 32 6 3 0 11 -5 18 -11z
m-44 -75 c21 -10 38 -27 41 -40 4 -13 10 -23 16 -23 5 0 6 -5 2 -11 -4 -7 -13
-2 -23 15 -8 14 -22 26 -31 26 -12 -1 -11 -4 4 -15 24 -18 14 -32 -21 -29
-110 9 -166 21 -158 34 3 5 12 7 19 4 7 -3 16 2 19 10 5 12 0 16 -20 16 -32 0
-20 16 17 23 55 10 101 6 135 -10z"/>
<path d="M1182 929 c2 -6 8 -10 13 -10 5 0 11 4 13 10 2 6 -4 11 -13 11 -9 0
-15 -5 -13 -11z"/>
<path d="M1251 859 c-12 -12 -19 -24 -16 -27 4 -4 12 1 19 11 7 9 23 17 35 17
12 0 19 4 16 10 -10 16 -29 12 -54 -11z"/>
</g>
</svg>
